<svg xmlns="http://www.w3.org/2000/svg" xmlns:xlink="http://www.w3.org/1999/xlink" width="48" height="48" class="icon" p-id="2647" t="1567612069253" version="1.1" viewBox="0 0 1024 1024"><defs><style type="text/css">@font-face{font-family:element-icons;src:url(chrome-extension://afhhlfojfpchajfpjefojlojfgmmdbbc/fonts/element-icons.woff) format(&quot;woff&quot;),url(chrome-extension://afhhlfojfpchajfpjefojlojfgmmdbbc/fonts/element-icons.ttf) format(&quot;truetype&quot;)}</style></defs><path fill="#6B737C" d="M512 64a448 448 0 0 0-448 448 448 448 0 0 0 448 448 448 448 0 0 0 448-448 448 448 0 0 0-448-448z m0 840A392.448 392.448 0 0 1 120 512 392.448 392.448 0 0 1 512 120 392.448 392.448 0 0 1 904 512 392.448 392.448 0 0 1 512 904zM288 418.624a56 56 0 1 0 112 0 56 56 0 0 0-112 0z m336 0a56 56 0 1 0 112 0 56 56 0 0 0-112 0zM512 773.376a186.624 186.624 0 0 0 186.624-186.624H325.376A186.624 186.624 0 0 0 512 773.376z" p-id="2648"/></svg>