<?xml version="1.0" standalone="no"?><!DOCTYPE svg PUBLIC "-//W3C//DTD SVG 1.1//EN" "http://www.w3.org/Graphics/SVG/1.1/DTD/svg11.dtd"><svg t="1567612069253" class="icon" viewBox="0 0 1024 1024" version="1.1" xmlns="http://www.w3.org/2000/svg" p-id="2647" xmlns:xlink="http://www.w3.org/1999/xlink" width="48" height="48"><defs><style type="text/css">@font-face { font-family: element-icons; src: url("chrome-extension://afhhlfojfpchajfpjefojlojfgmmdbbc/fonts/element-icons.woff") format("woff"), url("chrome-extension://afhhlfojfpchajfpjefojlojfgmmdbbc/fonts/element-icons.ttf") format("truetype"); }
</style></defs><path d="M512 64a448 448 0 0 0-448 448 448 448 0 0 0 448 448 448 448 0 0 0 448-448 448 448 0 0 0-448-448z m0 840A392.448 392.448 0 0 1 120 512 392.448 392.448 0 0 1 512 120 392.448 392.448 0 0 1 904 512 392.448 392.448 0 0 1 512 904zM288 418.624a56 56 0 1 0 112 0 56 56 0 0 0-112 0z m336 0a56 56 0 1 0 112 0 56 56 0 0 0-112 0zM512 773.376a186.624 186.624 0 0 0 186.624-186.624H325.376A186.624 186.624 0 0 0 512 773.376z" p-id="2648" fill="#6B737C"></path></svg>