<?xml version="1.0" standalone="no"?><!DOCTYPE svg PUBLIC "-//W3C//DTD SVG 1.1//EN" "http://www.w3.org/Graphics/SVG/1.1/DTD/svg11.dtd"><svg t="1561717250478" class="icon" viewBox="0 0 1024 1024" version="1.1" xmlns="http://www.w3.org/2000/svg" p-id="2762" xmlns:xlink="http://www.w3.org/1999/xlink" width="32" height="32"><defs><style type="text/css"></style></defs><path d="M911.784 956.782H111.57c-26.097 0-47.328-20.66-47.328-46.054V577.974c0-19.01 15.41-34.42 34.42-34.42s34.42 15.41 34.42 34.42V887.94H890.27V578.943c0-19.01 15.41-34.42 34.42-34.42s34.42 15.41 34.42 34.42v331.784c0 25.395-21.23 46.055-47.327 46.055zM511.57 67.204c-19.01 0-34.42 15.41-34.42 34.42v550.562c0 19.01 15.41 34.42 34.42 34.42s34.42-15.41 34.42-34.42V101.625c0-19.01-15.412-34.42-34.42-34.42zM284.073 464.868c-8.686 0-17.375 3.266-24.073 9.82-13.585 13.296-13.82 35.09-0.525 48.675L486.97 755.816c13.296 13.586 35.088 13.821 48.675 0.525 13.586-13.296 13.821-35.089 0.524-48.674L308.675 475.214c-6.741-6.889-15.67-10.346-24.602-10.346z m456.608 0c-8.934 0-17.86 3.456-24.602 10.346L488.584 707.667c-13.296 13.586-13.062 35.378 0.524 48.674 13.587 13.296 35.379 13.062 48.675-0.525l227.496-232.453c13.296-13.586 13.061-35.379-0.525-48.674-6.697-6.554-15.388-9.82-24.073-9.82z" p-id="2763"></path></svg>