<?xml version="1.0" standalone="no"?><!DOCTYPE svg PUBLIC "-//W3C//DTD SVG 1.1//EN" "http://www.w3.org/Graphics/SVG/1.1/DTD/svg11.dtd"><svg t="1566205081523" class="icon" viewBox="0 0 1024 1024" version="1.1" xmlns="http://www.w3.org/2000/svg" p-id="8834" xmlns:xlink="http://www.w3.org/1999/xlink" width="48" height="48"><defs><style type="text/css">@font-face { font-family: element-icons; src: url("chrome-extension://afhhlfojfpchajfpjefojlojfgmmdbbc/fonts/element-icons.woff") format("woff"), url("chrome-extension://afhhlfojfpchajfpjefojlojfgmmdbbc/fonts/element-icons.ttf") format("truetype"); }
</style></defs><path d="M1017.76896 942.08H6.23104A6.23104 6.23104 0 0 1 0 935.84896v-135.8336a6.23104 6.23104 0 0 1 6.23104-6.23104h1011.53792a6.23104 6.23104 0 0 1 6.23104 6.23104v135.8336a6.23104 6.23104 0 0 1-6.23104 6.23104z m0-372.736H6.23104A6.23104 6.23104 0 0 1 0 563.10272V427.27424a6.23104 6.23104 0 0 1 6.23104-6.23104h1011.53792A6.23104 6.23104 0 0 1 1024 427.27424v135.82848a6.23104 6.23104 0 0 1-6.23104 6.24128z m0-333.99808H6.23104A6.23104 6.23104 0 0 1 0 229.10464v-135.8336A6.23104 6.23104 0 0 1 6.23104 87.04h1011.53792A6.23104 6.23104 0 0 1 1024 93.27104v135.8336a6.23104 6.23104 0 0 1-6.23104 6.23104z" p-id="8835" fill="#262626"></path></svg>