<svg xmlns="http://www.w3.org/2000/svg" xmlns:xlink="http://www.w3.org/1999/xlink" width="48" height="48" class="icon" p-id="5529" t="1567660667526" version="1.1" viewBox="0 0 1024 1024"><defs><style type="text/css">@font-face{font-family:element-icons;src:url(chrome-extension://afhhlfojfpchajfpjefojlojfgmmdbbc/fonts/element-icons.woff) format(&quot;woff&quot;),url(chrome-extension://afhhlfojfpchajfpjefojlojfgmmdbbc/fonts/element-icons.ttf) format(&quot;truetype&quot;)}</style></defs><path fill="#6B737C" d="M686.2 604.4l16.1 164.1c14.6 148.9-155.9 243.3-306.8 170l-166.4-80.8c-151-73.3-169.2-259.4-32.8-335l150.3-83.3c136.3-75.6 325 16.1 339.6 165z" p-id="5530"/><path fill="#6B737C" d="M446.15562 308.88435a90 138 27.213 1 0 126.214722-245.450288 90 138 27.213 1 0-126.214722 245.450288Z" p-id="5531"/><path fill="#6B737C" d="M164.528335 419.327771a90 138 27.213 1 0 126.214722-245.450289 90 138 27.213 1 0-126.214722 245.450289Z" p-id="5532"/><path fill="#6B737C" d="M716.734049 447.967001a90 138 27.213 1 0 126.214722-245.450288 90 138 27.213 1 0-126.214722 245.450288Z" p-id="5533"/><path fill="#6B737C" d="M791.321612 741.652622a90 138 27.213 1 0 126.214722-245.450289 90 138 27.213 1 0-126.214722 245.450289Z" p-id="5534"/></svg>